<svg id="eQSxuIJ5UwY1" xmlns="http://www.w3.org/2000/svg" xmlns:xlink="http://www.w3.org/1999/xlink" viewBox="0 0 300 300" shape-rendering="geometricPrecision" text-rendering="geometricPrecision" project-id="fb89c2b09480483e85b3fbddc721fdde" export-id="135ff45ceca545eebd6a050a9750cb38" cached="false"><rect width="271.485062" height="279.26648" rx="0" ry="0" transform="matrix(1.105033 0 0 1.074243 0.000024-.000031)" fill="#fff" stroke-width="0"/><path d="M138.148333,206.898465c16.029944,14.777668,32.65146,3.385393,24.629544-16.293391c19.370651,12.092786,32.976002,3.766883,26.903041-17.051224" transform="translate(.381244 5.026275)" fill="none" stroke="#000" stroke-width="5" stroke-linecap="round" stroke-linejoin="round"/><ellipse rx="14.898421" ry="29.216385" transform="matrix(.906308-.422618 0.544818 1.168367 97.975987 146.026634)" stroke-width="0"/><ellipse rx="14.898421" ry="29.216385" transform="matrix(.906308-.422618 0.544818 1.168367 180.202224 98.703727)" stroke-width="0"/><path d="M122.675961,161.343007c3.227058,3.504787,11.608499,7.683228,17.099488,8.459746c3.894943-2.879507,5.237792-13.430759,5.669833-20.609385-8.964458-1.019638-21.258667,3.52844-22.769321,12.149639Z" transform="translate(.381245 5.026274)" stroke-width="0.6"/><path d="M225.276562,123.808426l.8188-22.405346-3.051891-20.916619-4.763927-15.259455-7.592509-10.644401-1.86091-1.935345-.223309-17.343674l42.207832.978622-.35494,88.025183-25.179146-.498965Z" transform="translate(.381243 5.026273)" fill="#fff" stroke-width="0.6"/><path d="M225.784865,110.660876c.266907-6.185109-.519928-18.063912-1.642653-23.743807-.36149-4.000309-2.755616-12.548371-4.479965-17.173195-2.238936-6.294908-9.108807-14.660511-11.872496-17.006051" transform="translate(.381245 5.026274)" fill="none" stroke="#000" stroke-width="4" stroke-linecap="round" stroke-linejoin="round"/><path d="M228.442055,46.103453L136.696292,83.470105L104.641286,14.622808l90.485493-37.974239l33.315276,69.454884Z" transform="translate(.381244 5.026273)" fill="#fff" stroke-width="0.6"/><path d="M29.77477,140.855192l59.317538-23.745305" transform="translate(118.388362-57.448532)" fill="none" stroke="#000" stroke-width="8" stroke-linecap="round" stroke-linejoin="round"/><path d="M86.675772,193.109266v12.665151l-74.766431-.155484-.078271-66.971296l25.076773.092535l8.865758,18.351817l10.49681,13.2652l12.111704,10.842859l18.293657,11.909218Z" transform="translate(.381243 5.026273)" fill="#fff" stroke-width="0.6"/><path d="M81.840657,189.359135c-4.111817-2.337805-11.727327-6.866616-15.225405-9.681814-5.268837-3.834184-13.912348-13.279725-16.628225-17.240009-2.812543-3.688919-7.311457-12.932281-8.678286-17.357423" transform="translate(-.313895 4.529747)" fill="none" stroke="#000" stroke-width="4" stroke-linecap="round" stroke-linejoin="round"/><path d="M32.419216,151.291139L109.87245,99.516717L68.627738,29.389754L-0.381219,66.837388l32.800435,84.453751Z" transform="translate(.381274 5.695856)" fill="#fff" stroke-width="0.6"/><path d="M42.376509,148.822196l48.218112-32.562073" transform="translate(.381243 1.819617)" fill="none" stroke="#000" stroke-width="8" stroke-linecap="round" stroke-linejoin="round"/><path d="M76.997722,212.179095L42.814088,237.624781l55.005864-14.972012-37.91664,29.028273" transform="translate(.381244 5.026276)" fill="none" stroke="#f9e" stroke-width="4" stroke-linecap="round" stroke-linejoin="round"/><path d="M258.799078,123.934983L224.398773,148.39169l50.156-10.688806-36.3445,26.271011" transform="translate(-.327037-1.702406)" fill="none" stroke="#f9e" stroke-width="4" stroke-linecap="round" stroke-linejoin="round"/></svg>
